<svg xmlns="http://www.w3.org/2000/svg" xmlns:xlink="http://www.w3.org/1999/xlink" width="787.829" height="980.268" viewBox="0 0 787.829 980.268">
  <defs>
    <clipPath id="clip-path">
      <rect id="사각형_2" data-name="사각형 2" width="787.829" height="980.268" fill="#fff"/>
    </clipPath>
  </defs>
  <g id="그룹_1" data-name="그룹 1" opacity="0.1" clip-path="url(#clip-path)">
    <path id="패스_1" data-name="패스 1" d="M527.2,1095.841a70.791,70.791,0,0,1-40.607-91.384l60.156-156.368A70.71,70.71,0,0,1,678.74,898.866l-60.155,156.369a70.79,70.79,0,0,1-91.384,40.606M619.05,857.089a17.8,17.8,0,0,0-22.694,10.084L536.2,1023.541a17.561,17.561,0,0,0,32.779,12.61l60.155-156.369a17.8,17.8,0,0,0-10.084-22.694" transform="translate(-199.434 -332.239)" fill="#fff"/>
    <path id="패스_2" data-name="패스 2" d="M839.838,1117.758l-22.148-8.521a63.884,63.884,0,0,1-36.645-82.469L841.311,870.11a26.575,26.575,0,0,1,49.607,19.084l-60.267,156.658a10.8,10.8,0,0,0,6.123,13.78l22.149,8.521a26.575,26.575,0,1,1-19.084,49.606" transform="translate(-321.489 -353.059)" fill="#fff"/>
    <path id="패스_3" data-name="패스 3" d="M997.01,1111.363a65.312,65.312,0,0,1-37.464-84.311l43.181-112.245A65.237,65.237,0,0,1,1124.5,961.654L1081.321,1073.9a65.311,65.311,0,0,1-84.311,37.464m70.945-184.414a12.249,12.249,0,0,0-15.621,6.941l-43.181,112.246a12.087,12.087,0,1,0,22.562,8.679L1074.9,942.57a12.249,12.249,0,0,0-6.941-15.621" transform="translate(-395.326 -361.304)" fill="#fff"/>
    <path id="패스_4" data-name="패스 4" d="M252.472,899.867a26.575,26.575,0,0,0-34.345,15.261L117.122,1177.683a33.087,33.087,0,0,1-61.762-23.76L179.979,829.988l31.087,11.959a88.675,88.675,0,1,0,63.677-165.524,26.575,26.575,0,0,0-19.083,49.606,35.524,35.524,0,0,1-25.51,66.311L123.331,751.248c-7.157-2.753-13.668-11.188-17.418-22.562-4.057-12.306-4.228-26.059-.445-35.892a26.575,26.575,0,0,0-49.606-19.084c-8.226,21.383-8.382,47.487-.427,71.617,8.818,26.746,26.609,46.984,48.812,55.526L130.373,810.9,5.754,1134.839a86.237,86.237,0,1,0,160.974,61.927L267.733,934.212a26.575,26.575,0,0,0-15.261-34.345" transform="translate(0 -271.775)" fill="#fff"/>
    <path id="패스_5" data-name="패스 5" d="M153.688,369.216c-.285-.11-.57-.224-.853-.345a26.575,26.575,0,0,1-14.084-34.844A235.179,235.179,0,0,1,287.708,201.791c10.876-3.157,21.673-5.428,32.116-7.625,14.636-3.079,28.464-5.988,40.862-10.957,62.155-25.512,90.358-95.573,113.92-165.152a26.575,26.575,0,0,1,50.342,17.048c-12.64,37.325-27.254,76.618-48.421,111.105-25.92,42.231-57.249,70.433-95.776,86.216l-.167.068c-16.738,6.725-33.555,10.263-49.819,13.684-9.917,2.086-19.285,4.057-28.243,6.657-50.358,14.615-94.364,53.681-114.844,101.951a26.576,26.576,0,0,1-33.991,14.429M370.677,207.835l.005,0Z" transform="translate(-56.548 0.001)" fill="#fff"/>
    <path id="패스_6" data-name="패스 6" d="M1204.665,602.546a26.586,26.586,0,0,1-16.758-28.452c6.469-46.635,3.787-80.591,1.195-113.429-4.576-57.942-8.9-112.671,39.315-211.221A26.575,26.575,0,0,1,1276.16,272.8c-41.827,85.5-38.406,128.824-34.073,183.68,2.686,34.009,5.729,72.556-1.533,124.916a26.6,26.6,0,0,1-35.889,21.149" transform="translate(-491.04 -97.07)" fill="#fff"/>
  </g>
</svg>
