<?xml version="1.0" standalone="no"?>
<!DOCTYPE svg PUBLIC "-//W3C//DTD SVG 20010904//EN"
 "http://www.w3.org/TR/2001/REC-SVG-20010904/DTD/svg10.dtd">
<svg version="1.0" xmlns="http://www.w3.org/2000/svg"
 width="417.000000pt" height="417.000000pt" viewBox="0 0 417.000000 417.000000"
 preserveAspectRatio="xMidYMid meet">
<metadata>
Created by potrace 1.14, written by Peter Selinger 2001-2017
</metadata>
<g transform="translate(0.000000,417.000000) scale(0.100000,-0.100000)"
fill="#000000" stroke="none">
<path d="M650 2441 l0 -100 -37 16 c-27 11 -58 14 -109 11 -154 -10 -247 -114
-247 -274 0 -129 68 -227 182 -260 68 -20 145 -15 200 14 35 19 42 20 47 7 5
-11 23 -15 75 -15 l69 0 0 350 0 350 -90 0 -90 0 0 -99z m-41 -245 c34 -18 51
-54 51 -107 0 -58 -51 -109 -108 -109 -93 0 -149 107 -96 185 31 44 100 58
153 31z"/>
<path d="M1570 2190 l0 -350 69 0 c53 0 70 4 75 15 5 14 11 13 47 -6 101 -51
228 -31 309 50 129 129 96 362 -64 443 -55 28 -151 35 -210 15 l-46 -16 0 100
0 99 -90 0 -90 0 0 -350z m366 -14 c50 -57 36 -149 -27 -181 -44 -23 -104 -14
-138 19 -22 22 -26 36 -26 82 0 51 3 58 34 86 31 27 39 30 84 25 39 -3 56 -11
73 -31z"/>
<path d="M1104 2360 c-60 -19 -126 -73 -158 -130 -28 -49 -31 -64 -31 -135 0
-90 19 -138 77 -195 54 -55 110 -75 208 -75 73 0 93 4 142 28 104 51 155 143
146 266 -11 151 -111 241 -273 247 -44 2 -94 -1 -111 -6z m173 -185 c33 -33
35 -39 31 -86 -9 -87 -80 -131 -154 -96 -83 40 -83 173 1 208 46 18 86 10 122
-26z"/>
<path d="M2955 2346 c-95 -45 -144 -125 -145 -237 0 -193 184 -309 373 -234
29 12 21 -33 -13 -67 -29 -28 -35 -30 -87 -26 -42 4 -61 10 -74 26 -15 20 -27
22 -104 22 -85 0 -86 0 -79 -22 21 -69 84 -136 150 -159 22 -8 77 -14 124 -14
101 0 161 24 213 86 53 61 57 90 57 373 l0 256 -60 0 c-44 0 -61 -4 -68 -17
-9 -14 -15 -13 -63 10 -70 36 -153 37 -224 3z m208 -146 c57 -45 53 -144 -6
-180 -79 -48 -167 -1 -167 90 0 37 23 85 47 99 31 18 98 13 126 -9z"/>
<path d="M3580 2357 c-78 -25 -131 -113 -114 -190 15 -71 62 -106 172 -127 35
-7 73 -21 85 -31 l22 -19 -24 -20 c-13 -11 -28 -20 -35 -20 -19 0 -56 30 -56
46 0 11 -18 14 -86 14 l-87 0 6 -40 c7 -51 39 -95 90 -123 35 -18 58 -22 132
-22 77 0 96 4 135 25 63 35 90 80 90 147 0 96 -47 141 -170 163 -84 15 -114
33 -100 60 15 28 80 28 87 0 5 -18 14 -20 89 -20 78 0 84 1 84 20 0 53 -63
122 -128 140 -47 13 -147 11 -192 -3z"/>
<path d="M2220 2200 c0 -173 11 -234 50 -288 44 -61 107 -87 210 -87 94 0 141
18 192 72 51 53 58 87 58 278 l0 175 -90 0 -90 0 -2 -166 -3 -167 -26 -19
c-20 -15 -35 -18 -58 -13 -52 11 -61 42 -61 215 l0 150 -90 0 -90 0 0 -150z"/>
</g>
</svg>
